<?xml version="1.0" encoding="utf-8"?>
<!-- Generator: Adobe Illustrator 27.5.0, SVG Export Plug-In . SVG Version: 6.00 Build 0)  -->
<svg version="1.1" id="Layer_1" xmlns="http://www.w3.org/2000/svg" xmlns:xlink="http://www.w3.org/1999/xlink" x="0px" y="0px"
	 viewBox="0 0 4000 4000" style="enable-background:new 0 0 4000 4000;" xml:space="preserve">
<g>
	<rect x="16.529" y="16.529" style="fill-rule:evenodd;clip-rule:evenodd;fill:#FFFFFF;" width="3966.942" height="3966.942"/>
	<path style="fill-rule:evenodd;clip-rule:evenodd;" d="M2851.09,2698.768c99.891,0,180.873,80.982,180.873,180.874
		c0,99.892-80.982,180.874-180.873,180.874c-99.897,0-180.879-80.982-180.879-180.874
		C2670.21,2779.749,2751.192,2698.768,2851.09,2698.768 M1011.785,1556.266h0.005l239.22-71.799
		c69.737-20.934,143.26,9.314,175.233,74.727l3.964,8.111c30.253,61.875,97.4,93.621,164.418,77.734l1110.296-263.21
		c43.011-10.195,84.089-1.865,119.735,24.284c35.636,26.149,55.914,62.831,59.101,106.921l42.884,593.593
		c4.944,68.481-36.821,129.508-102.444,149.688l-1090.023,335.168c-15.443,7.37-27.544,20.807-33.05,37.567
		c-7.483,22.775-1.527,47.823,15.41,64.798c14.459,14.496,34.826,20.995,54.664,17.959l10.083-2.398l0.01-0.005l1115.59-265.215
		c29.583-6.185,60.206,4.048,80.129,26.777c19.922,22.729,26.05,54.43,16.038,82.945c-8.126,23.135-25.85,41.263-48.142,50.104
		c-5.258,1.823-10.669,3.374-16.229,4.612l-1200.672,267.261c-42.036,9.357-81.839,1.177-116.778-24.002
		c-34.937-25.175-55.291-60.339-59.714-103.177l-16.947-163.983c-4.043-39.142,7.215-76.268,29.926-105.054
		c35.698-45.261,41.727-103.355,16.079-154.979l-290.388-584.489c-24.172-48.645-69.474-78.185-123.74-80.673
		c-26.769-1.228-103.417,39.817-151.526,23.965c-31.297-10.313-55.802-63.44-43.747-94.022
		C979.385,1568.631,992.424,1562.469,1011.785,1556.266z M1982.91,2879.642c99.892,0,180.874,80.982,180.874,180.874
		c0,99.896-80.982,180.878-180.874,180.878c-99.896,0-180.874-80.982-180.874-180.878
		C1802.036,2960.624,1883.014,2879.642,1982.91,2879.642z"/>
	<g>
		<defs>
			<path id="SVGID_1_" d="M1989.212,758.596c0,0-3.345,173.124-80.073,375.626c-76.737,202.496-235.754,514.378-103.646,799.186
				c40.314,86.899,93.582,154.317,154.22,203.969l0.013-0.01c93.01,76.165,203.463,110.233,311.516,107.539l0.028,0.108
				c39.354-0.989,76.775-6.334,112.084-15.456c35.135-9.75,70.215-23.835,104.792-42.656l-0.028-0.107
				c94.922-51.689,173.547-136.425,216.015-248.887l0.013-0.003c27.686-73.313,40.112-158.334,31.57-253.745
				c-27.995-312.706-321.644-503.292-489.348-640.297C2078.665,906.856,1989.212,758.596,1989.212,758.596"/>
		</defs>
		<clipPath id="SVGID_00000090980205818305696560000007458118234957632395_">
			<use xlink:href="#SVGID_1_"  style="overflow:visible;"/>
		</clipPath>
		
			<linearGradient id="SVGID_00000070825960759687135560000004429899110074071975_" gradientUnits="userSpaceOnUse" x1="2496.1138" y1="2662.2808" x2="1898.5942" y2="251.3715">
			<stop  offset="0" style="stop-color:#FF0000"/>
			<stop  offset="1" style="stop-color:#FFFF00"/>
		</linearGradient>
		
			<rect x="1673.386" y="758.596" style="clip-path:url(#SVGID_00000090980205818305696560000007458118234957632395_);fill:url(#SVGID_00000070825960759687135560000004429899110074071975_);" width="1070.872" height="1489.004"/>
	</g>
	<path style="opacity:0.3;fill-rule:evenodd;clip-rule:evenodd;fill:#870000;" d="M2302.153,1926.517
		c136.919-36.691,248.549-167.759,230.861-365.34c-19.594-218.909-228.879-355.54-383.825-482.124
		c-25.873-21.135-50.813-43.532-74.825-66.757l-23.184-22.42l-8.864,31.008c-9.188,32.117-19.585,63.987-31.425,95.225
		c-70.894,187.096-183.826,410.068-91.342,609.444C2003.024,1905.508,2165.232,1963.204,2302.153,1926.517"/>
	<path style="fill-rule:evenodd;clip-rule:evenodd;fill:#FEFEFE;" d="M2055.318,1005.314c25.516,24.678,51.258,47.595,76.038,67.835
		c149.238,121.927,357.906,257.831,376.793,468.864c16.73,186.853-87.964,310.57-216.572,345.035
		c-128.613,34.461-281.137-20.339-360.076-190.521c-89.157-192.208,23.6-414.238,91.881-594.446
		C2034.725,1072.16,2045.558,1039.443,2055.318,1005.314"/>
	<rect style="fill:none;" width="4000" height="4000"/>
</g>
</svg>
